<?xml version="1.0" encoding="utf-8"?>
<!-- Svg Vector Icons : http://www.onlinewebfonts.com/icon -->
<!DOCTYPE svg PUBLIC "-//W3C//DTD SVG 1.1//EN" "http://www.w3.org/Graphics/SVG/1.1/DTD/svg11.dtd">
<svg version="1.1" xmlns="http://www.w3.org/2000/svg" xmlns:xlink="http://www.w3.org/1999/xlink" x="0px" y="0px" viewBox="0 0 256 256" enable-background="new 0 0 256 256" xml:space="preserve">
<metadata> Svg Vector Icons : http://www.onlinewebfonts.com/icon </metadata>
<g><g><path fill="#000000" d="M128,10C62.3,10,10,62.3,10,128c0,65.7,52.3,118,118,118c65.7,0,118-52.3,118-118C246,62.3,193.7,10,128,10z M128,57.2c18.5,0,33.7,15.2,33.7,33.7c0,18.5-15.2,33.7-33.7,33.7s-33.7-15.2-33.7-33.7C94.3,72.4,109.5,57.2,128,57.2z M200.5,193.7c-18.5,18.5-43.8,32-72.5,32c-28.7,0-53.9-11.8-72.5-32c-5.1-5.1-5.1-13.5,0-18.5c18.5-20.2,43.8-33.7,72.5-33.7c28.7,0,53.9,13.5,72.5,33.7C205.5,180.3,205.5,188.7,200.5,193.7z"/></g></g>
</svg>